<mxfile host="www.draw.io" modified="2020-02-15T04:44:22.735Z" agent="Mozilla/5.0 (Windows NT 10.0; Win64; x64) AppleWebKit/537.36 (KHTML, like Gecko) Chrome/80.0.3987.100 Safari/537.36" etag="dnHuaXYZcVYLM2gCj9e_" version="12.7.0" type="github" pages="2">
  <diagram id="G4d-L3zSk5V6-DsMhal5" name="Staff Timesheet">
    <mxGraphModel dx="1037" dy="580" grid="1" gridSize="10" guides="1" tooltips="1" connect="1" arrows="1" fold="1" page="1" pageScale="1" pageWidth="850" pageHeight="1100" math="0" shadow="0">
      <root>
        <mxCell id="0"/>
        <mxCell id="1" parent="0"/>
        <mxCell id="OoUrD7eOOT6MOx7Irfvf-1" value="" style="rounded=0;whiteSpace=wrap;html=1;" vertex="1" parent="1">
          <mxGeometry x="80" y="50" width="950" height="570" as="geometry"/>
        </mxCell>
        <mxCell id="OoUrD7eOOT6MOx7Irfvf-2" value="&lt;font style=&quot;font-size: 20px&quot;&gt;Staff Name:&lt;/font&gt;" style="text;html=1;strokeColor=none;fillColor=none;align=center;verticalAlign=middle;whiteSpace=wrap;rounded=0;" vertex="1" parent="1">
          <mxGeometry x="180" y="75" width="110" height="30" as="geometry"/>
        </mxCell>
        <mxCell id="OoUrD7eOOT6MOx7Irfvf-3" value="&lt;font style=&quot;font-size: 16px&quot;&gt;Frank Workman&lt;/font&gt;" style="rounded=0;whiteSpace=wrap;html=1;" vertex="1" parent="1">
          <mxGeometry x="300" y="70" width="220" height="35" as="geometry"/>
        </mxCell>
        <mxCell id="OoUrD7eOOT6MOx7Irfvf-5" value="&lt;font style=&quot;font-size: 20px&quot;&gt;Month/Year:&lt;/font&gt;" style="text;html=1;strokeColor=none;fillColor=none;align=center;verticalAlign=middle;whiteSpace=wrap;rounded=0;" vertex="1" parent="1">
          <mxGeometry x="560" y="72.5" width="110" height="30" as="geometry"/>
        </mxCell>
        <mxCell id="OoUrD7eOOT6MOx7Irfvf-6" value="&lt;font style=&quot;font-size: 16px&quot;&gt;February/2020&lt;/font&gt;" style="rounded=0;whiteSpace=wrap;html=1;" vertex="1" parent="1">
          <mxGeometry x="680" y="70" width="220" height="35" as="geometry"/>
        </mxCell>
        <mxCell id="OoUrD7eOOT6MOx7Irfvf-7" value="&lt;font style=&quot;font-size: 16px&quot;&gt;Submit&lt;/font&gt;" style="rounded=1;whiteSpace=wrap;html=1;" vertex="1" parent="1">
          <mxGeometry x="495" y="560" width="120" height="40" as="geometry"/>
        </mxCell>
        <mxCell id="OoUrD7eOOT6MOx7Irfvf-8" value="" style="whiteSpace=wrap;html=1;aspect=fixed;" vertex="1" parent="1">
          <mxGeometry x="720" y="530" width="20" height="20" as="geometry"/>
        </mxCell>
        <mxCell id="OoUrD7eOOT6MOx7Irfvf-9" value="By checking this box, I certify that this timesheet is complete and accurately reflects my time and effort:" style="text;html=1;strokeColor=none;fillColor=none;align=right;verticalAlign=middle;whiteSpace=wrap;rounded=0;" vertex="1" parent="1">
          <mxGeometry x="370" y="530" width="340" height="20" as="geometry"/>
        </mxCell>
        <mxCell id="OoUrD7eOOT6MOx7Irfvf-13" value="&lt;table border=&quot;1&quot; width=&quot;100%&quot; cellpadding=&quot;4&quot; style=&quot;width: 100% ; height: 100% ; border-collapse: collapse ; background-color: rgb(255 , 255 , 255) ; border: 1px solid rgb(0 , 0 , 0)&quot;&gt;&lt;tbody&gt;&lt;tr style=&quot;color: rgb(255 , 255 , 255)&quot;&gt;&lt;td style=&quot;text-align: center ; background-color: rgb(0 , 0 , 0)&quot;&gt;&lt;b&gt;Individual Served&lt;/b&gt;&lt;/td&gt;&lt;th style=&quot;text-align: center ; background-color: rgb(0 , 0 , 0)&quot;&gt;Specifics&lt;/th&gt;&lt;td style=&quot;text-align: center ; background-color: rgb(0 , 0 , 0)&quot;&gt;&lt;b&gt;1&lt;/b&gt;&lt;/td&gt;&lt;td style=&quot;text-align: center ; background-color: rgb(0 , 0 , 0)&quot;&gt;&lt;b&gt;2&lt;/b&gt;&lt;/td&gt;&lt;td style=&quot;text-align: center ; background-color: rgb(0 , 0 , 0)&quot;&gt;&lt;b&gt;3&lt;/b&gt;&lt;/td&gt;&lt;th style=&quot;text-align: center ; background-color: rgb(0 , 0 , 0)&quot;&gt;4&lt;/th&gt;&lt;th style=&quot;text-align: center ; background-color: rgb(0 , 0 , 0)&quot;&gt;5&lt;/th&gt;&lt;td style=&quot;text-align: center ; background-color: rgb(0 , 0 , 0)&quot;&gt;&lt;b&gt;6&lt;/b&gt;&lt;/td&gt;&lt;td style=&quot;text-align: center ; background-color: rgb(0 , 0 , 0)&quot;&gt;&lt;b&gt;7&lt;/b&gt;&lt;/td&gt;&lt;td style=&quot;text-align: center ; background-color: rgb(0 , 0 , 0)&quot;&gt;&lt;b&gt;8&lt;/b&gt;&lt;/td&gt;&lt;td style=&quot;text-align: center ; background-color: rgb(0 , 0 , 0)&quot;&gt;&lt;b&gt;9&lt;/b&gt;&lt;/td&gt;&lt;td style=&quot;text-align: center ; background-color: rgb(0 , 0 , 0)&quot;&gt;&lt;b&gt;10&lt;/b&gt;&lt;/td&gt;&lt;td style=&quot;text-align: center ; background-color: rgb(0 , 0 , 0)&quot;&gt;&lt;b&gt;11&lt;/b&gt;&lt;/td&gt;&lt;td style=&quot;text-align: center ; background-color: rgb(0 , 0 , 0)&quot;&gt;&lt;b&gt;12&lt;/b&gt;&lt;/td&gt;&lt;td style=&quot;text-align: center ; background-color: rgb(0 , 0 , 0)&quot;&gt;&lt;b&gt;13&lt;/b&gt;&lt;/td&gt;&lt;td style=&quot;text-align: center ; background-color: rgb(0 , 0 , 0)&quot;&gt;&lt;b&gt;14&lt;/b&gt;&lt;/td&gt;&lt;td style=&quot;text-align: center ; background-color: rgb(0 , 0 , 0)&quot;&gt;&lt;b&gt;15&lt;/b&gt;&lt;/td&gt;&lt;/tr&gt;&lt;tr&gt;&lt;td style=&quot;background-color: rgb(255 , 255 , 255)&quot;&gt;Last: Client&lt;/td&gt;&lt;td&gt;Start Time:&lt;/td&gt;&lt;td&gt;&lt;br&gt;&lt;/td&gt;&lt;td&gt;&lt;br&gt;&lt;/td&gt;&lt;td&gt;9:00 AM&lt;/td&gt;&lt;td&gt;&lt;/td&gt;&lt;td&gt;&lt;br&gt;&lt;/td&gt;&lt;td&gt;&lt;br&gt;&lt;/td&gt;&lt;td&gt;&lt;br&gt;&lt;/td&gt;&lt;td&gt;&lt;br&gt;&lt;/td&gt;&lt;td&gt;&lt;br&gt;&lt;/td&gt;&lt;td&gt;&lt;br&gt;&lt;/td&gt;&lt;td&gt;&lt;br&gt;&lt;/td&gt;&lt;td&gt;&lt;br&gt;&lt;/td&gt;&lt;td&gt;&lt;br&gt;&lt;/td&gt;&lt;td&gt;&lt;br&gt;&lt;/td&gt;&lt;td&gt;&lt;br&gt;&lt;/td&gt;&lt;/tr&gt;&lt;tr&gt;&lt;td&gt;First: John&lt;/td&gt;&lt;td&gt;End Time:&lt;/td&gt;&lt;td&gt;&lt;br&gt;&lt;/td&gt;&lt;td&gt;&lt;br&gt;&lt;/td&gt;&lt;td&gt;1:00 PM&lt;/td&gt;&lt;td&gt;&lt;/td&gt;&lt;td&gt;&lt;br&gt;&lt;/td&gt;&lt;td&gt;&lt;br&gt;&lt;/td&gt;&lt;td&gt;&lt;br&gt;&lt;/td&gt;&lt;td&gt;&lt;br&gt;&lt;/td&gt;&lt;td&gt;&lt;br&gt;&lt;/td&gt;&lt;td&gt;&lt;br&gt;&lt;/td&gt;&lt;td&gt;&lt;br&gt;&lt;/td&gt;&lt;td&gt;&lt;br&gt;&lt;/td&gt;&lt;td&gt;&lt;br&gt;&lt;/td&gt;&lt;td&gt;&lt;br&gt;&lt;/td&gt;&lt;td&gt;&lt;br&gt;&lt;/td&gt;&lt;/tr&gt;&lt;tr&gt;&lt;td style=&quot;background-color: rgb(195 , 171 , 208)&quot;&gt;Last: House 11&lt;/td&gt;&lt;td&gt;Start Time:&lt;/td&gt;&lt;td&gt;&lt;br&gt;&lt;/td&gt;&lt;td&gt;&lt;br&gt;&lt;/td&gt;&lt;td&gt;&lt;br&gt;&lt;/td&gt;&lt;td&gt;9:00 AM&lt;/td&gt;&lt;td&gt;&lt;br&gt;&lt;/td&gt;&lt;td&gt;9:00 AM&lt;/td&gt;&lt;td&gt;&lt;br&gt;&lt;/td&gt;&lt;td&gt;&lt;br&gt;&lt;/td&gt;&lt;td&gt;&lt;br&gt;&lt;/td&gt;&lt;td&gt;&lt;br&gt;&lt;/td&gt;&lt;td&gt;9:00 AM&lt;/td&gt;&lt;td&gt;&lt;br&gt;&lt;/td&gt;&lt;td&gt;9:00 AM&lt;/td&gt;&lt;td&gt;&lt;br&gt;&lt;/td&gt;&lt;td&gt;&lt;br&gt;&lt;/td&gt;&lt;/tr&gt;&lt;tr&gt;&lt;td style=&quot;background-color: rgb(195 , 171 , 208)&quot;&gt;First:&lt;/td&gt;&lt;td&gt;End Time:&lt;/td&gt;&lt;td&gt;&lt;br&gt;&lt;/td&gt;&lt;td&gt;&lt;br&gt;&lt;/td&gt;&lt;td&gt;&lt;br&gt;&lt;/td&gt;&lt;td&gt;9:00 PM&lt;/td&gt;&lt;td&gt;&lt;br&gt;&lt;/td&gt;&lt;td&gt;9:00 PM&lt;/td&gt;&lt;td&gt;&lt;br&gt;&lt;/td&gt;&lt;td&gt;&lt;br&gt;&lt;/td&gt;&lt;td&gt;&lt;br&gt;&lt;/td&gt;&lt;td&gt;&lt;br&gt;&lt;/td&gt;&lt;td&gt;9:00 PM&lt;/td&gt;&lt;td&gt;&lt;br&gt;&lt;/td&gt;&lt;td&gt;9:00 PM&lt;/td&gt;&lt;td&gt;&lt;br&gt;&lt;/td&gt;&lt;td&gt;&lt;br&gt;&lt;/td&gt;&lt;/tr&gt;&lt;tr&gt;&lt;td style=&quot;background-color: rgb(185 , 224 , 165)&quot;&gt;Last: Kid&lt;/td&gt;&lt;td&gt;Start Time:&lt;/td&gt;&lt;td&gt;&lt;br&gt;&lt;/td&gt;&lt;td&gt;&lt;br&gt;&lt;/td&gt;&lt;td&gt;&lt;br&gt;&lt;/td&gt;&lt;td&gt;&lt;br&gt;&lt;/td&gt;&lt;td&gt;&lt;br&gt;&lt;/td&gt;&lt;td&gt;&lt;br&gt;&lt;/td&gt;&lt;td&gt;&lt;br&gt;&lt;/td&gt;&lt;td&gt;&lt;br&gt;&lt;/td&gt;&lt;td&gt;&lt;br&gt;&lt;/td&gt;&lt;td&gt;&lt;br&gt;&lt;/td&gt;&lt;td&gt;&lt;br&gt;&lt;/td&gt;&lt;td&gt;&lt;br&gt;&lt;/td&gt;&lt;td&gt;&lt;br&gt;&lt;/td&gt;&lt;td&gt;3:30 PM&lt;/td&gt;&lt;td&gt;&lt;br&gt;&lt;/td&gt;&lt;/tr&gt;&lt;tr&gt;&lt;td style=&quot;background-color: rgb(185 , 224 , 165)&quot;&gt;First: Jimothy&lt;/td&gt;&lt;td&gt;End Time:&lt;/td&gt;&lt;td&gt;&lt;br&gt;&lt;/td&gt;&lt;td&gt;&lt;br&gt;&lt;/td&gt;&lt;td&gt;&lt;br&gt;&lt;/td&gt;&lt;td&gt;&lt;br&gt;&lt;/td&gt;&lt;td&gt;&lt;br&gt;&lt;/td&gt;&lt;td&gt;&lt;br&gt;&lt;/td&gt;&lt;td&gt;&lt;br&gt;&lt;/td&gt;&lt;td&gt;&lt;br&gt;&lt;/td&gt;&lt;td&gt;&lt;br&gt;&lt;/td&gt;&lt;td&gt;&lt;br&gt;&lt;/td&gt;&lt;td&gt;&lt;br&gt;&lt;/td&gt;&lt;td&gt;&lt;br&gt;&lt;/td&gt;&lt;td&gt;&lt;br&gt;&lt;/td&gt;&lt;td&gt;6:30 PM&lt;/td&gt;&lt;td&gt;&lt;br&gt;&lt;/td&gt;&lt;/tr&gt;&lt;tr&gt;&lt;td&gt;Last:&lt;/td&gt;&lt;td&gt;Start Time:&lt;/td&gt;&lt;td&gt;&lt;br&gt;&lt;/td&gt;&lt;td&gt;&lt;br&gt;&lt;/td&gt;&lt;td&gt;&lt;br&gt;&lt;/td&gt;&lt;td&gt;&lt;br&gt;&lt;/td&gt;&lt;td&gt;&lt;br&gt;&lt;/td&gt;&lt;td&gt;&lt;br&gt;&lt;/td&gt;&lt;td&gt;&lt;br&gt;&lt;/td&gt;&lt;td&gt;&lt;br&gt;&lt;/td&gt;&lt;td&gt;&lt;br&gt;&lt;/td&gt;&lt;td&gt;&lt;br&gt;&lt;/td&gt;&lt;td&gt;&lt;br&gt;&lt;/td&gt;&lt;td&gt;&lt;br&gt;&lt;/td&gt;&lt;td&gt;&lt;br&gt;&lt;/td&gt;&lt;td&gt;&lt;br&gt;&lt;/td&gt;&lt;td&gt;&lt;br&gt;&lt;/td&gt;&lt;/tr&gt;&lt;tr&gt;&lt;td&gt;First:&lt;/td&gt;&lt;td&gt;End Time:&lt;/td&gt;&lt;td&gt;&lt;br&gt;&lt;/td&gt;&lt;td&gt;&lt;br&gt;&lt;/td&gt;&lt;td&gt;&lt;br&gt;&lt;/td&gt;&lt;td&gt;&lt;br&gt;&lt;/td&gt;&lt;td&gt;&lt;br&gt;&lt;/td&gt;&lt;td&gt;&lt;br&gt;&lt;/td&gt;&lt;td&gt;&lt;br&gt;&lt;/td&gt;&lt;td&gt;&lt;br&gt;&lt;/td&gt;&lt;td&gt;&lt;br&gt;&lt;/td&gt;&lt;td&gt;&lt;br&gt;&lt;/td&gt;&lt;td&gt;&lt;br&gt;&lt;/td&gt;&lt;td&gt;&lt;br&gt;&lt;/td&gt;&lt;td&gt;&lt;br&gt;&lt;/td&gt;&lt;td&gt;&lt;br&gt;&lt;/td&gt;&lt;td&gt;&lt;br&gt;&lt;/td&gt;&lt;/tr&gt;&lt;tr&gt;&lt;td&gt;Last:&lt;/td&gt;&lt;td&gt;Start Time:&lt;/td&gt;&lt;td&gt;&lt;br&gt;&lt;/td&gt;&lt;td&gt;&lt;br&gt;&lt;/td&gt;&lt;td&gt;&lt;br&gt;&lt;/td&gt;&lt;td&gt;&lt;br&gt;&lt;/td&gt;&lt;td&gt;&lt;br&gt;&lt;/td&gt;&lt;td&gt;&lt;br&gt;&lt;/td&gt;&lt;td&gt;&lt;br&gt;&lt;/td&gt;&lt;td&gt;&lt;br&gt;&lt;/td&gt;&lt;td&gt;&lt;br&gt;&lt;/td&gt;&lt;td&gt;&lt;br&gt;&lt;/td&gt;&lt;td&gt;&lt;br&gt;&lt;/td&gt;&lt;td&gt;&lt;br&gt;&lt;/td&gt;&lt;td&gt;&lt;br&gt;&lt;/td&gt;&lt;td&gt;&lt;br&gt;&lt;/td&gt;&lt;td&gt;&lt;br&gt;&lt;/td&gt;&lt;/tr&gt;&lt;tr&gt;&lt;td&gt;First:&lt;/td&gt;&lt;td&gt;End Time:&lt;/td&gt;&lt;td&gt;&lt;br&gt;&lt;/td&gt;&lt;td&gt;&lt;br&gt;&lt;/td&gt;&lt;td&gt;&lt;br&gt;&lt;/td&gt;&lt;td&gt;&lt;br&gt;&lt;/td&gt;&lt;td&gt;&lt;br&gt;&lt;/td&gt;&lt;td&gt;&lt;br&gt;&lt;/td&gt;&lt;td&gt;&lt;br&gt;&lt;/td&gt;&lt;td&gt;&lt;br&gt;&lt;/td&gt;&lt;td&gt;&lt;br&gt;&lt;/td&gt;&lt;td&gt;&lt;br&gt;&lt;/td&gt;&lt;td&gt;&lt;br&gt;&lt;/td&gt;&lt;td&gt;&lt;br&gt;&lt;/td&gt;&lt;td&gt;&lt;br&gt;&lt;/td&gt;&lt;td&gt;&lt;br&gt;&lt;/td&gt;&lt;td&gt;&lt;br&gt;&lt;/td&gt;&lt;/tr&gt;&lt;/tbody&gt;&lt;/table&gt;" style="text;html=1;strokeColor=#c0c0c0;fillColor=#ffffff;overflow=fill;rounded=0;" vertex="1" parent="1">
          <mxGeometry x="100" y="190" width="920" height="320" as="geometry"/>
        </mxCell>
        <mxCell id="m4fSpOaNA-V_o3uhzdcZ-1" value="PDD" style="rounded=0;whiteSpace=wrap;html=1;" vertex="1" parent="1">
          <mxGeometry x="243.80000000000007" y="140" width="120" height="40" as="geometry"/>
        </mxCell>
        <mxCell id="m4fSpOaNA-V_o3uhzdcZ-2" value="Childrens" style="rounded=0;whiteSpace=wrap;html=1;fillColor=#d5e8d4;strokeColor=#82b366;" vertex="1" parent="1">
          <mxGeometry x="370.20000000000005" y="140" width="120" height="40" as="geometry"/>
        </mxCell>
        <mxCell id="m4fSpOaNA-V_o3uhzdcZ-3" value="CTO" style="rounded=0;whiteSpace=wrap;html=1;fillColor=#f8cecc;strokeColor=#b85450;" vertex="1" parent="1">
          <mxGeometry x="497.2" y="140" width="120" height="40" as="geometry"/>
        </mxCell>
        <mxCell id="m4fSpOaNA-V_o3uhzdcZ-4" value="Group Home" style="rounded=0;whiteSpace=wrap;html=1;fillColor=#e1d5e7;strokeColor=#9673a6;" vertex="1" parent="1">
          <mxGeometry x="622.1999999999999" y="140" width="120" height="40" as="geometry"/>
        </mxCell>
        <mxCell id="m4fSpOaNA-V_o3uhzdcZ-5" value="Private" style="rounded=0;whiteSpace=wrap;html=1;fillColor=#fff2cc;strokeColor=#d6b656;" vertex="1" parent="1">
          <mxGeometry x="746.1999999999999" y="140" width="120" height="40" as="geometry"/>
        </mxCell>
      </root>
    </mxGraphModel>
  </diagram>
  <diagram id="9Xy9edhAkQdSb8cOQwM0" name="Coordinator Review">
    <mxGraphModel dx="1037" dy="580" grid="1" gridSize="10" guides="1" tooltips="1" connect="1" arrows="1" fold="1" page="1" pageScale="1" pageWidth="850" pageHeight="1100" math="0" shadow="0">
      <root>
        <mxCell id="jnXok-9iYF_1syOcfNRv-0"/>
        <mxCell id="jnXok-9iYF_1syOcfNRv-1" parent="jnXok-9iYF_1syOcfNRv-0"/>
        <mxCell id="aGu2HhtarLDVRX48DfMf-0" value="" style="rounded=0;whiteSpace=wrap;html=1;" vertex="1" parent="jnXok-9iYF_1syOcfNRv-1">
          <mxGeometry x="80" y="50" width="960" height="570" as="geometry"/>
        </mxCell>
        <mxCell id="aGu2HhtarLDVRX48DfMf-1" value="&lt;font style=&quot;font-size: 20px&quot;&gt;Staff Name:&lt;/font&gt;" style="text;html=1;strokeColor=none;fillColor=none;align=center;verticalAlign=middle;whiteSpace=wrap;rounded=0;" vertex="1" parent="jnXok-9iYF_1syOcfNRv-1">
          <mxGeometry x="180" y="75" width="110" height="30" as="geometry"/>
        </mxCell>
        <mxCell id="aGu2HhtarLDVRX48DfMf-2" value="&lt;font style=&quot;font-size: 16px&quot;&gt;Frank Workman&lt;/font&gt;" style="rounded=0;whiteSpace=wrap;html=1;" vertex="1" parent="jnXok-9iYF_1syOcfNRv-1">
          <mxGeometry x="300" y="70" width="220" height="35" as="geometry"/>
        </mxCell>
        <mxCell id="aGu2HhtarLDVRX48DfMf-3" value="&lt;font style=&quot;font-size: 20px&quot;&gt;Month/Year:&lt;/font&gt;" style="text;html=1;strokeColor=none;fillColor=none;align=center;verticalAlign=middle;whiteSpace=wrap;rounded=0;" vertex="1" parent="jnXok-9iYF_1syOcfNRv-1">
          <mxGeometry x="560" y="72.5" width="110" height="30" as="geometry"/>
        </mxCell>
        <mxCell id="aGu2HhtarLDVRX48DfMf-4" value="&lt;font style=&quot;font-size: 16px&quot;&gt;February/2020&lt;/font&gt;" style="rounded=0;whiteSpace=wrap;html=1;" vertex="1" parent="jnXok-9iYF_1syOcfNRv-1">
          <mxGeometry x="680" y="70" width="220" height="35" as="geometry"/>
        </mxCell>
        <mxCell id="aGu2HhtarLDVRX48DfMf-5" value="&lt;font style=&quot;font-size: 16px&quot;&gt;Approve&lt;/font&gt;" style="rounded=1;whiteSpace=wrap;html=1;" vertex="1" parent="jnXok-9iYF_1syOcfNRv-1">
          <mxGeometry x="495" y="560" width="120" height="40" as="geometry"/>
        </mxCell>
        <mxCell id="aGu2HhtarLDVRX48DfMf-8" value="&lt;table border=&quot;1&quot; width=&quot;100%&quot; cellpadding=&quot;4&quot; style=&quot;width: 100% ; height: 100% ; border-collapse: collapse ; background-color: rgb(255 , 255 , 255) ; border: 1px solid rgb(0 , 0 , 0)&quot;&gt;&lt;tbody&gt;&lt;tr style=&quot;color: rgb(255 , 255 , 255)&quot;&gt;&lt;td style=&quot;text-align: center ; background-color: rgb(0 , 0 , 0)&quot;&gt;&lt;b&gt;Individual Served&lt;/b&gt;&lt;/td&gt;&lt;th style=&quot;text-align: center ; background-color: rgb(0 , 0 , 0)&quot;&gt;Specifics&lt;/th&gt;&lt;td style=&quot;text-align: center ; background-color: rgb(0 , 0 , 0)&quot;&gt;&lt;b&gt;1&lt;/b&gt;&lt;/td&gt;&lt;td style=&quot;text-align: center ; background-color: rgb(0 , 0 , 0)&quot;&gt;&lt;b&gt;2&lt;/b&gt;&lt;/td&gt;&lt;td style=&quot;text-align: center ; background-color: rgb(0 , 0 , 0)&quot;&gt;&lt;b&gt;3&lt;/b&gt;&lt;/td&gt;&lt;th style=&quot;text-align: center ; background-color: rgb(0 , 0 , 0)&quot;&gt;4&lt;/th&gt;&lt;th style=&quot;text-align: center ; background-color: rgb(0 , 0 , 0)&quot;&gt;5&lt;/th&gt;&lt;td style=&quot;text-align: center ; background-color: rgb(0 , 0 , 0)&quot;&gt;&lt;b&gt;6&lt;/b&gt;&lt;/td&gt;&lt;td style=&quot;text-align: center ; background-color: rgb(0 , 0 , 0)&quot;&gt;&lt;b&gt;7&lt;/b&gt;&lt;/td&gt;&lt;td style=&quot;text-align: center ; background-color: rgb(0 , 0 , 0)&quot;&gt;&lt;b&gt;8&lt;/b&gt;&lt;/td&gt;&lt;td style=&quot;text-align: center ; background-color: rgb(0 , 0 , 0)&quot;&gt;&lt;b&gt;9&lt;/b&gt;&lt;/td&gt;&lt;td style=&quot;text-align: center ; background-color: rgb(0 , 0 , 0)&quot;&gt;&lt;b&gt;10&lt;/b&gt;&lt;/td&gt;&lt;td style=&quot;text-align: center ; background-color: rgb(0 , 0 , 0)&quot;&gt;&lt;b&gt;11&lt;/b&gt;&lt;/td&gt;&lt;td style=&quot;text-align: center ; background-color: rgb(0 , 0 , 0)&quot;&gt;&lt;b&gt;12&lt;/b&gt;&lt;/td&gt;&lt;td style=&quot;text-align: center ; background-color: rgb(0 , 0 , 0)&quot;&gt;&lt;b&gt;13&lt;/b&gt;&lt;/td&gt;&lt;td style=&quot;text-align: center ; background-color: rgb(0 , 0 , 0)&quot;&gt;&lt;b&gt;14&lt;/b&gt;&lt;/td&gt;&lt;td style=&quot;text-align: center ; background-color: rgb(0 , 0 , 0)&quot;&gt;&lt;b&gt;15&lt;/b&gt;&lt;/td&gt;&lt;td style=&quot;background-color: rgb(0 , 0 , 0)&quot;&gt;&lt;b&gt;Total&lt;/b&gt;&lt;/td&gt;&lt;/tr&gt;&lt;tr&gt;&lt;td style=&quot;background-color: rgb(255 , 255 , 255)&quot;&gt;Last: Client&lt;/td&gt;&lt;td&gt;Start Time:&lt;/td&gt;&lt;td&gt;&lt;br&gt;&lt;/td&gt;&lt;td&gt;&lt;br&gt;&lt;/td&gt;&lt;td&gt;9:00 AM&lt;/td&gt;&lt;td&gt;&lt;/td&gt;&lt;td&gt;&lt;br&gt;&lt;/td&gt;&lt;td&gt;&lt;br&gt;&lt;/td&gt;&lt;td&gt;&lt;br&gt;&lt;/td&gt;&lt;td&gt;&lt;br&gt;&lt;/td&gt;&lt;td&gt;&lt;br&gt;&lt;/td&gt;&lt;td&gt;&lt;br&gt;&lt;/td&gt;&lt;td&gt;&lt;br&gt;&lt;/td&gt;&lt;td&gt;&lt;br&gt;&lt;/td&gt;&lt;td&gt;&lt;br&gt;&lt;/td&gt;&lt;td&gt;&lt;br&gt;&lt;/td&gt;&lt;td&gt;&lt;br&gt;&lt;/td&gt;&lt;td&gt;4.0&lt;/td&gt;&lt;/tr&gt;&lt;tr&gt;&lt;td&gt;First: John&lt;/td&gt;&lt;td&gt;End Time:&lt;/td&gt;&lt;td&gt;&lt;br&gt;&lt;/td&gt;&lt;td&gt;&lt;br&gt;&lt;/td&gt;&lt;td&gt;1:00 PM&lt;/td&gt;&lt;td&gt;&lt;/td&gt;&lt;td&gt;&lt;br&gt;&lt;/td&gt;&lt;td&gt;&lt;br&gt;&lt;/td&gt;&lt;td&gt;&lt;br&gt;&lt;/td&gt;&lt;td&gt;&lt;br&gt;&lt;/td&gt;&lt;td&gt;&lt;br&gt;&lt;/td&gt;&lt;td&gt;&lt;br&gt;&lt;/td&gt;&lt;td&gt;&lt;br&gt;&lt;/td&gt;&lt;td&gt;&lt;br&gt;&lt;/td&gt;&lt;td&gt;&lt;br&gt;&lt;/td&gt;&lt;td&gt;&lt;br&gt;&lt;/td&gt;&lt;td&gt;&lt;br&gt;&lt;/td&gt;&lt;td&gt;&lt;br&gt;&lt;/td&gt;&lt;/tr&gt;&lt;tr&gt;&lt;td style=&quot;background-color: rgb(195 , 171 , 208)&quot;&gt;Last: House 11&lt;/td&gt;&lt;td&gt;Start Time:&lt;/td&gt;&lt;td&gt;&lt;br&gt;&lt;/td&gt;&lt;td&gt;&lt;br&gt;&lt;/td&gt;&lt;td&gt;&lt;br&gt;&lt;/td&gt;&lt;td&gt;9:00 AM&lt;/td&gt;&lt;td&gt;&lt;br&gt;&lt;/td&gt;&lt;td&gt;9:00 AM&lt;/td&gt;&lt;td&gt;&lt;br&gt;&lt;/td&gt;&lt;td&gt;&lt;br&gt;&lt;/td&gt;&lt;td&gt;&lt;br&gt;&lt;/td&gt;&lt;td&gt;&lt;br&gt;&lt;/td&gt;&lt;td&gt;9:00 AM&lt;/td&gt;&lt;td&gt;&lt;br&gt;&lt;/td&gt;&lt;td&gt;9:00 AM&lt;/td&gt;&lt;td&gt;&lt;br&gt;&lt;/td&gt;&lt;td&gt;&lt;br&gt;&lt;/td&gt;&lt;td&gt;48.0&lt;/td&gt;&lt;/tr&gt;&lt;tr&gt;&lt;td style=&quot;background-color: rgb(195 , 171 , 208)&quot;&gt;First:&lt;/td&gt;&lt;td&gt;End Time:&lt;/td&gt;&lt;td&gt;&lt;br&gt;&lt;/td&gt;&lt;td&gt;&lt;br&gt;&lt;/td&gt;&lt;td&gt;&lt;br&gt;&lt;/td&gt;&lt;td&gt;9:00 PM&lt;/td&gt;&lt;td&gt;&lt;br&gt;&lt;/td&gt;&lt;td&gt;9:00 PM&lt;/td&gt;&lt;td&gt;&lt;br&gt;&lt;/td&gt;&lt;td&gt;&lt;br&gt;&lt;/td&gt;&lt;td&gt;&lt;br&gt;&lt;/td&gt;&lt;td&gt;&lt;br&gt;&lt;/td&gt;&lt;td&gt;9:00 PM&lt;/td&gt;&lt;td&gt;&lt;br&gt;&lt;/td&gt;&lt;td&gt;9:00 PM&lt;/td&gt;&lt;td&gt;&lt;br&gt;&lt;/td&gt;&lt;td&gt;&lt;br&gt;&lt;/td&gt;&lt;td&gt;&lt;br&gt;&lt;/td&gt;&lt;/tr&gt;&lt;tr&gt;&lt;td style=&quot;background-color: rgb(185 , 224 , 165)&quot;&gt;Last: Kid&lt;/td&gt;&lt;td&gt;Sched. Start:&lt;/td&gt;&lt;td&gt;&lt;br&gt;&lt;/td&gt;&lt;td&gt;&lt;br&gt;&lt;/td&gt;&lt;td&gt;&lt;br&gt;&lt;/td&gt;&lt;td&gt;&lt;br&gt;&lt;/td&gt;&lt;td&gt;&lt;br&gt;&lt;/td&gt;&lt;td&gt;&lt;br&gt;&lt;/td&gt;&lt;td&gt;&lt;br&gt;&lt;/td&gt;&lt;td&gt;&lt;br&gt;&lt;/td&gt;&lt;td&gt;&lt;br&gt;&lt;/td&gt;&lt;td&gt;&lt;br&gt;&lt;/td&gt;&lt;td&gt;&lt;br&gt;&lt;/td&gt;&lt;td&gt;&lt;br&gt;&lt;/td&gt;&lt;td&gt;&lt;br&gt;&lt;/td&gt;&lt;td&gt;3:30 PM&lt;/td&gt;&lt;td&gt;&lt;br&gt;&lt;/td&gt;&lt;td&gt;3.0&lt;/td&gt;&lt;/tr&gt;&lt;tr&gt;&lt;td style=&quot;background-color: rgb(185 , 224 , 165)&quot;&gt;First: Jimothy&lt;/td&gt;&lt;td&gt;Sched. End:&lt;/td&gt;&lt;td&gt;&lt;br&gt;&lt;/td&gt;&lt;td&gt;&lt;br&gt;&lt;/td&gt;&lt;td&gt;&lt;br&gt;&lt;/td&gt;&lt;td&gt;&lt;br&gt;&lt;/td&gt;&lt;td&gt;&lt;br&gt;&lt;/td&gt;&lt;td&gt;&lt;br&gt;&lt;/td&gt;&lt;td&gt;&lt;br&gt;&lt;/td&gt;&lt;td&gt;&lt;br&gt;&lt;/td&gt;&lt;td&gt;&lt;br&gt;&lt;/td&gt;&lt;td&gt;&lt;br&gt;&lt;/td&gt;&lt;td&gt;&lt;br&gt;&lt;/td&gt;&lt;td&gt;&lt;br&gt;&lt;/td&gt;&lt;td&gt;&lt;br&gt;&lt;/td&gt;&lt;td&gt;6:30 PM&lt;/td&gt;&lt;td&gt;&lt;br&gt;&lt;/td&gt;&lt;td&gt;&lt;br&gt;&lt;/td&gt;&lt;/tr&gt;&lt;tr&gt;&lt;td&gt;Last:&lt;/td&gt;&lt;td&gt;Start Time:&lt;/td&gt;&lt;td&gt;&lt;br&gt;&lt;/td&gt;&lt;td&gt;&lt;br&gt;&lt;/td&gt;&lt;td&gt;&lt;br&gt;&lt;/td&gt;&lt;td&gt;&lt;br&gt;&lt;/td&gt;&lt;td&gt;&lt;br&gt;&lt;/td&gt;&lt;td&gt;&lt;br&gt;&lt;/td&gt;&lt;td&gt;&lt;br&gt;&lt;/td&gt;&lt;td&gt;&lt;br&gt;&lt;/td&gt;&lt;td&gt;&lt;br&gt;&lt;/td&gt;&lt;td&gt;&lt;br&gt;&lt;/td&gt;&lt;td&gt;&lt;br&gt;&lt;/td&gt;&lt;td&gt;&lt;br&gt;&lt;/td&gt;&lt;td&gt;&lt;br&gt;&lt;/td&gt;&lt;td&gt;&lt;br&gt;&lt;/td&gt;&lt;td&gt;&lt;br&gt;&lt;/td&gt;&lt;td&gt;&lt;br&gt;&lt;/td&gt;&lt;/tr&gt;&lt;tr&gt;&lt;td&gt;First:&lt;/td&gt;&lt;td&gt;End Time:&lt;/td&gt;&lt;td&gt;&lt;br&gt;&lt;/td&gt;&lt;td&gt;&lt;br&gt;&lt;/td&gt;&lt;td&gt;&lt;br&gt;&lt;/td&gt;&lt;td&gt;&lt;br&gt;&lt;/td&gt;&lt;td&gt;&lt;br&gt;&lt;/td&gt;&lt;td&gt;&lt;br&gt;&lt;/td&gt;&lt;td&gt;&lt;br&gt;&lt;/td&gt;&lt;td&gt;&lt;br&gt;&lt;/td&gt;&lt;td&gt;&lt;br&gt;&lt;/td&gt;&lt;td&gt;&lt;br&gt;&lt;/td&gt;&lt;td&gt;&lt;br&gt;&lt;/td&gt;&lt;td&gt;&lt;br&gt;&lt;/td&gt;&lt;td&gt;&lt;br&gt;&lt;/td&gt;&lt;td&gt;&lt;br&gt;&lt;/td&gt;&lt;td&gt;&lt;br&gt;&lt;/td&gt;&lt;td&gt;&lt;br&gt;&lt;/td&gt;&lt;/tr&gt;&lt;tr&gt;&lt;td&gt;Last:&lt;/td&gt;&lt;td&gt;Start Time:&lt;/td&gt;&lt;td&gt;&lt;br&gt;&lt;/td&gt;&lt;td&gt;&lt;br&gt;&lt;/td&gt;&lt;td&gt;&lt;br&gt;&lt;/td&gt;&lt;td&gt;&lt;br&gt;&lt;/td&gt;&lt;td&gt;&lt;br&gt;&lt;/td&gt;&lt;td&gt;&lt;br&gt;&lt;/td&gt;&lt;td&gt;&lt;br&gt;&lt;/td&gt;&lt;td&gt;&lt;br&gt;&lt;/td&gt;&lt;td&gt;&lt;br&gt;&lt;/td&gt;&lt;td&gt;&lt;br&gt;&lt;/td&gt;&lt;td&gt;&lt;br&gt;&lt;/td&gt;&lt;td&gt;&lt;br&gt;&lt;/td&gt;&lt;td&gt;&lt;br&gt;&lt;/td&gt;&lt;td&gt;&lt;br&gt;&lt;/td&gt;&lt;td&gt;&lt;br&gt;&lt;/td&gt;&lt;td&gt;&lt;br&gt;&lt;/td&gt;&lt;/tr&gt;&lt;tr&gt;&lt;td&gt;First:&lt;/td&gt;&lt;td&gt;End Time:&lt;/td&gt;&lt;td&gt;&lt;br&gt;&lt;/td&gt;&lt;td&gt;&lt;br&gt;&lt;/td&gt;&lt;td&gt;&lt;br&gt;&lt;/td&gt;&lt;td&gt;&lt;br&gt;&lt;/td&gt;&lt;td&gt;&lt;br&gt;&lt;/td&gt;&lt;td&gt;&lt;br&gt;&lt;/td&gt;&lt;td&gt;&lt;br&gt;&lt;/td&gt;&lt;td&gt;&lt;br&gt;&lt;/td&gt;&lt;td&gt;&lt;br&gt;&lt;/td&gt;&lt;td&gt;&lt;br&gt;&lt;/td&gt;&lt;td&gt;&lt;br&gt;&lt;/td&gt;&lt;td&gt;&lt;br&gt;&lt;/td&gt;&lt;td&gt;&lt;br&gt;&lt;/td&gt;&lt;td&gt;&lt;br&gt;&lt;/td&gt;&lt;td&gt;&lt;br&gt;&lt;/td&gt;&lt;td&gt;&lt;br&gt;&lt;/td&gt;&lt;/tr&gt;&lt;tr&gt;&lt;td&gt;Total Hours:&lt;/td&gt;&lt;td&gt;&lt;br&gt;&lt;/td&gt;&lt;td&gt;&lt;br&gt;&lt;/td&gt;&lt;td&gt;&lt;br&gt;&lt;/td&gt;&lt;td&gt;4.0&lt;/td&gt;&lt;td&gt;12.0&lt;/td&gt;&lt;td&gt;&lt;br&gt;&lt;/td&gt;&lt;td&gt;12.0&lt;/td&gt;&lt;td&gt;&lt;br&gt;&lt;/td&gt;&lt;td&gt;&lt;br&gt;&lt;/td&gt;&lt;td&gt;&lt;br&gt;&lt;/td&gt;&lt;td&gt;&lt;br&gt;&lt;/td&gt;&lt;td&gt;12.0&lt;/td&gt;&lt;td&gt;&lt;br&gt;&lt;/td&gt;&lt;td&gt;12.0&lt;/td&gt;&lt;td&gt;3.0&lt;/td&gt;&lt;td&gt;&lt;br&gt;&lt;/td&gt;&lt;td&gt;&lt;b&gt;55.0&lt;/b&gt;&lt;/td&gt;&lt;/tr&gt;&lt;/tbody&gt;&lt;/table&gt;" style="text;html=1;strokeColor=#c0c0c0;fillColor=#ffffff;overflow=fill;rounded=0;" vertex="1" parent="jnXok-9iYF_1syOcfNRv-1">
          <mxGeometry x="100" y="190" width="920" height="350" as="geometry"/>
        </mxCell>
        <mxCell id="aGu2HhtarLDVRX48DfMf-9" value="PDD" style="rounded=0;whiteSpace=wrap;html=1;" vertex="1" parent="jnXok-9iYF_1syOcfNRv-1">
          <mxGeometry x="243.80000000000007" y="140" width="120" height="40" as="geometry"/>
        </mxCell>
        <mxCell id="aGu2HhtarLDVRX48DfMf-10" value="Childrens" style="rounded=0;whiteSpace=wrap;html=1;fillColor=#d5e8d4;strokeColor=#82b366;" vertex="1" parent="jnXok-9iYF_1syOcfNRv-1">
          <mxGeometry x="370.20000000000005" y="140" width="120" height="40" as="geometry"/>
        </mxCell>
        <mxCell id="aGu2HhtarLDVRX48DfMf-11" value="CTO" style="rounded=0;whiteSpace=wrap;html=1;fillColor=#f8cecc;strokeColor=#b85450;" vertex="1" parent="jnXok-9iYF_1syOcfNRv-1">
          <mxGeometry x="497.2" y="140" width="120" height="40" as="geometry"/>
        </mxCell>
        <mxCell id="aGu2HhtarLDVRX48DfMf-12" value="Group Home" style="rounded=0;whiteSpace=wrap;html=1;fillColor=#e1d5e7;strokeColor=#9673a6;" vertex="1" parent="jnXok-9iYF_1syOcfNRv-1">
          <mxGeometry x="622.1999999999999" y="140" width="120" height="40" as="geometry"/>
        </mxCell>
        <mxCell id="aGu2HhtarLDVRX48DfMf-13" value="Private" style="rounded=0;whiteSpace=wrap;html=1;fillColor=#fff2cc;strokeColor=#d6b656;" vertex="1" parent="jnXok-9iYF_1syOcfNRv-1">
          <mxGeometry x="746.1999999999999" y="140" width="120" height="40" as="geometry"/>
        </mxCell>
      </root>
    </mxGraphModel>
  </diagram>
</mxfile>
